<?xml version="1.0" encoding="us-ascii" standalone="no"?><svg xmlns="http://www.w3.org/2000/svg" xmlns:xlink="http://www.w3.org/1999/xlink" contentStyleType="text/css" height="491px" preserveAspectRatio="none" style="width:595px;height:491px;background:#FFFFFF;" version="1.1" viewBox="0 0 595 491" width="595px" zoomAndPan="magnify"><defs/><g><!--class Matriz--><g id="elem_Matriz"><rect codeLine="1" fill="#F1F1F1" height="80.5938" id="Matriz" rx="2.5" ry="2.5" style="stroke:#181818;stroke-width:0.5;" width="266" x="161" y="7"/><ellipse cx="267.25" cy="23" fill="#ADD1B2" rx="11" ry="11" style="stroke:#181818;stroke-width:1.0;"/><path d="M269.5938,18.6719 C268.6563,18.2344 268.0625,18.0938 267.1875,18.0938 C264.5625,18.0938 262.5625,20.1719 262.5625,22.8906 L262.5625,24.0156 C262.5625,26.5938 264.6719,28.4844 267.5625,28.4844 C268.7813,28.4844 269.9375,28.1875 270.6875,27.6406 C271.2656,27.2344 271.5938,26.7813 271.5938,26.3906 C271.5938,25.9375 271.2031,25.5469 270.7344,25.5469 C270.5156,25.5469 270.3125,25.625 270.125,25.8125 C269.6719,26.2969 269.6719,26.2969 269.4844,26.3906 C269.0625,26.6563 268.375,26.7813 267.6094,26.7813 C265.5625,26.7813 264.2656,25.6875 264.2656,23.9844 L264.2656,22.8906 C264.2656,21.1094 265.5156,19.7969 267.25,19.7969 C267.8281,19.7969 268.4375,19.9531 268.9063,20.2031 C269.3906,20.4844 269.5625,20.7031 269.6563,21.1094 C269.7188,21.5156 269.75,21.6406 269.8906,21.7656 C270.0313,21.9063 270.2656,22.0156 270.4844,22.0156 C270.75,22.0156 271.0156,21.875 271.1875,21.6563 C271.2969,21.5 271.3281,21.3125 271.3281,20.8906 L271.3281,19.4688 C271.3281,19.0313 271.3125,18.9063 271.2188,18.75 C271.0625,18.4844 270.7813,18.3438 270.4844,18.3438 C270.1875,18.3438 269.9844,18.4375 269.7656,18.75 L269.5938,18.6719 Z " fill="#000000"/><text fill="#000000" font-family="sans-serif" font-size="14" lengthAdjust="spacing" textLength="45" x="287.75" y="27.8467">Matriz</text><line style="stroke:#181818;stroke-width:0.5;" x1="162" x2="426" y1="39" y2="39"/><rect fill="none" height="6" style="stroke:#C82930;stroke-width:1.0;" width="6" x="169" y="49.6484"/><text fill="#000000" font-family="sans-serif" font-size="14" lengthAdjust="spacing" textLength="178" x="181" y="55.9951">elementos: List[List[int]]</text><line style="stroke:#181818;stroke-width:0.5;" x1="162" x2="426" y1="63.2969" y2="63.2969"/><ellipse cx="172" cy="76.9453" fill="#84BE84" rx="3" ry="3" style="stroke:#038048;stroke-width:1.0;"/><text fill="#000000" font-family="sans-serif" font-size="14" lengthAdjust="spacing" textLength="240" x="181" y="80.292">__init__(elementos: List[List[int]])</text></g><!--class Transpuesta--><g id="elem_Transpuesta"><rect codeLine="6" fill="#F1F1F1" height="96.8906" id="Transpuesta" rx="2.5" ry="2.5" style="stroke:#181818;stroke-width:0.5;" width="266" x="7" y="388"/><ellipse cx="91.75" cy="404" fill="#ADD1B2" rx="11" ry="11" style="stroke:#181818;stroke-width:1.0;"/><path d="M94.0938,399.6719 C93.1563,399.2344 92.5625,399.0938 91.6875,399.0938 C89.0625,399.0938 87.0625,401.1719 87.0625,403.8906 L87.0625,405.0156 C87.0625,407.5938 89.1719,409.4844 92.0625,409.4844 C93.2813,409.4844 94.4375,409.1875 95.1875,408.6406 C95.7656,408.2344 96.0938,407.7813 96.0938,407.3906 C96.0938,406.9375 95.7031,406.5469 95.2344,406.5469 C95.0156,406.5469 94.8125,406.625 94.625,406.8125 C94.1719,407.2969 94.1719,407.2969 93.9844,407.3906 C93.5625,407.6563 92.875,407.7813 92.1094,407.7813 C90.0625,407.7813 88.7656,406.6875 88.7656,404.9844 L88.7656,403.8906 C88.7656,402.1094 90.0156,400.7969 91.75,400.7969 C92.3281,400.7969 92.9375,400.9531 93.4063,401.2031 C93.8906,401.4844 94.0625,401.7031 94.1563,402.1094 C94.2188,402.5156 94.25,402.6406 94.3906,402.7656 C94.5313,402.9063 94.7656,403.0156 94.9844,403.0156 C95.25,403.0156 95.5156,402.875 95.6875,402.6563 C95.7969,402.5 95.8281,402.3125 95.8281,401.8906 L95.8281,400.4688 C95.8281,400.0313 95.8125,399.9063 95.7188,399.75 C95.5625,399.4844 95.2813,399.3438 94.9844,399.3438 C94.6875,399.3438 94.4844,399.4375 94.2656,399.75 L94.0938,399.6719 Z " fill="#000000"/><text fill="#000000" font-family="sans-serif" font-size="14" lengthAdjust="spacing" textLength="88" x="112.25" y="408.8467">Transpuesta</text><line style="stroke:#181818;stroke-width:0.5;" x1="8" x2="272" y1="420" y2="420"/><rect fill="none" height="6" style="stroke:#C82930;stroke-width:1.0;" width="6" x="15" y="430.6484"/><text fill="#000000" font-family="sans-serif" font-size="14" lengthAdjust="spacing" textLength="178" x="27" y="436.9951">elementos: List[List[int]]</text><line style="stroke:#181818;stroke-width:0.5;" x1="8" x2="272" y1="444.2969" y2="444.2969"/><ellipse cx="18" cy="457.9453" fill="#84BE84" rx="3" ry="3" style="stroke:#038048;stroke-width:1.0;"/><text fill="#000000" font-family="sans-serif" font-size="14" lengthAdjust="spacing" textLength="240" x="27" y="461.292">__init__(elementos: List[List[int]])</text><ellipse cx="18" cy="474.2422" fill="#84BE84" rx="3" ry="3" style="stroke:#038048;stroke-width:1.0;"/><text fill="#000000" font-family="sans-serif" font-size="14" lengthAdjust="spacing" textLength="150" x="27" y="477.5889">transpuesta(): Matriz</text></g><!--class Imprimir--><g id="elem_Imprimir"><rect codeLine="12" fill="#F1F1F1" height="96.8906" id="Imprimir" rx="2.5" ry="2.5" style="stroke:#181818;stroke-width:0.5;" width="266" x="322" y="388"/><ellipse cx="419.75" cy="404" fill="#ADD1B2" rx="11" ry="11" style="stroke:#181818;stroke-width:1.0;"/><path d="M422.0938,399.6719 C421.1563,399.2344 420.5625,399.0938 419.6875,399.0938 C417.0625,399.0938 415.0625,401.1719 415.0625,403.8906 L415.0625,405.0156 C415.0625,407.5938 417.1719,409.4844 420.0625,409.4844 C421.2813,409.4844 422.4375,409.1875 423.1875,408.6406 C423.7656,408.2344 424.0938,407.7813 424.0938,407.3906 C424.0938,406.9375 423.7031,406.5469 423.2344,406.5469 C423.0156,406.5469 422.8125,406.625 422.625,406.8125 C422.1719,407.2969 422.1719,407.2969 421.9844,407.3906 C421.5625,407.6563 420.875,407.7813 420.1094,407.7813 C418.0625,407.7813 416.7656,406.6875 416.7656,404.9844 L416.7656,403.8906 C416.7656,402.1094 418.0156,400.7969 419.75,400.7969 C420.3281,400.7969 420.9375,400.9531 421.4063,401.2031 C421.8906,401.4844 422.0625,401.7031 422.1563,402.1094 C422.2188,402.5156 422.25,402.6406 422.3906,402.7656 C422.5313,402.9063 422.7656,403.0156 422.9844,403.0156 C423.25,403.0156 423.5156,402.875 423.6875,402.6563 C423.7969,402.5 423.8281,402.3125 423.8281,401.8906 L423.8281,400.4688 C423.8281,400.0313 423.8125,399.9063 423.7188,399.75 C423.5625,399.4844 423.2813,399.3438 422.9844,399.3438 C422.6875,399.3438 422.4844,399.4375 422.2656,399.75 L422.0938,399.6719 Z " fill="#000000"/><text fill="#000000" font-family="sans-serif" font-size="14" lengthAdjust="spacing" textLength="62" x="440.25" y="408.8467">Imprimir</text><line style="stroke:#181818;stroke-width:0.5;" x1="323" x2="587" y1="420" y2="420"/><rect fill="none" height="6" style="stroke:#C82930;stroke-width:1.0;" width="6" x="330" y="430.6484"/><text fill="#000000" font-family="sans-serif" font-size="14" lengthAdjust="spacing" textLength="178" x="342" y="436.9951">elementos: List[List[int]]</text><line style="stroke:#181818;stroke-width:0.5;" x1="323" x2="587" y1="444.2969" y2="444.2969"/><ellipse cx="333" cy="457.9453" fill="#84BE84" rx="3" ry="3" style="stroke:#038048;stroke-width:1.0;"/><text fill="#000000" font-family="sans-serif" font-size="14" lengthAdjust="spacing" textLength="240" x="342" y="461.292">__init__(elementos: List[List[int]])</text><ellipse cx="333" cy="474.2422" fill="#84BE84" rx="3" ry="3" style="stroke:#038048;stroke-width:1.0;"/><text fill="#000000" font-family="sans-serif" font-size="14" lengthAdjust="spacing" textLength="111" x="342" y="477.5889">imprimir(): void</text></g><!--class Lanzador--><g id="elem_Lanzador"><rect codeLine="18" fill="#F1F1F1" height="145.7813" id="Lanzador" rx="2.5" ry="2.5" style="stroke:#181818;stroke-width:0.5;" width="204" x="195" y="165"/><ellipse cx="260.25" cy="181" fill="#ADD1B2" rx="11" ry="11" style="stroke:#181818;stroke-width:1.0;"/><path d="M262.5938,176.6719 C261.6563,176.2344 261.0625,176.0938 260.1875,176.0938 C257.5625,176.0938 255.5625,178.1719 255.5625,180.8906 L255.5625,182.0156 C255.5625,184.5938 257.6719,186.4844 260.5625,186.4844 C261.7813,186.4844 262.9375,186.1875 263.6875,185.6406 C264.2656,185.2344 264.5938,184.7813 264.5938,184.3906 C264.5938,183.9375 264.2031,183.5469 263.7344,183.5469 C263.5156,183.5469 263.3125,183.625 263.125,183.8125 C262.6719,184.2969 262.6719,184.2969 262.4844,184.3906 C262.0625,184.6563 261.375,184.7813 260.6094,184.7813 C258.5625,184.7813 257.2656,183.6875 257.2656,181.9844 L257.2656,180.8906 C257.2656,179.1094 258.5156,177.7969 260.25,177.7969 C260.8281,177.7969 261.4375,177.9531 261.9063,178.2031 C262.3906,178.4844 262.5625,178.7031 262.6563,179.1094 C262.7188,179.5156 262.75,179.6406 262.8906,179.7656 C263.0313,179.9063 263.2656,180.0156 263.4844,180.0156 C263.75,180.0156 264.0156,179.875 264.1875,179.6563 C264.2969,179.5 264.3281,179.3125 264.3281,178.8906 L264.3281,177.4688 C264.3281,177.0313 264.3125,176.9063 264.2188,176.75 C264.0625,176.4844 263.7813,176.3438 263.4844,176.3438 C263.1875,176.3438 262.9844,176.4375 262.7656,176.75 L262.5938,176.6719 Z " fill="#000000"/><text fill="#000000" font-family="sans-serif" font-size="14" lengthAdjust="spacing" textLength="65" x="280.75" y="185.8467">Lanzador</text><line style="stroke:#181818;stroke-width:0.5;" x1="196" x2="398" y1="197" y2="197"/><rect fill="none" height="6" style="stroke:#C82930;stroke-width:1.0;" width="6" x="203" y="207.6484"/><text fill="#000000" font-family="sans-serif" font-size="14" lengthAdjust="spacing" textLength="178" x="215" y="213.9951">elementos: List[List[int]]</text><rect fill="none" height="6" style="stroke:#C82930;stroke-width:1.0;" width="6" x="203" y="223.9453"/><text fill="#000000" font-family="sans-serif" font-size="14" lengthAdjust="spacing" textLength="127" x="215" y="230.292">cantidad_filas: int</text><rect fill="none" height="6" style="stroke:#C82930;stroke-width:1.0;" width="6" x="203" y="240.2422"/><text fill="#000000" font-family="sans-serif" font-size="14" lengthAdjust="spacing" textLength="165" x="215" y="246.5889">cantidad_columnas: int</text><line style="stroke:#181818;stroke-width:0.5;" x1="196" x2="398" y1="253.8906" y2="253.8906"/><ellipse cx="206" cy="267.5391" fill="#84BE84" rx="3" ry="3" style="stroke:#038048;stroke-width:1.0;"/><text fill="#000000" font-family="sans-serif" font-size="14" lengthAdjust="spacing" textLength="62" x="215" y="270.8857">__init__()</text><ellipse cx="206" cy="283.8359" fill="#84BE84" rx="3" ry="3" style="stroke:#038048;stroke-width:1.0;"/><text fill="#000000" font-family="sans-serif" font-size="14" lengthAdjust="spacing" textLength="150" x="215" y="287.1826">create_matrix(): void</text><ellipse cx="206" cy="300.1328" fill="#84BE84" rx="3" ry="3" style="stroke:#038048;stroke-width:1.0;"/><text fill="#000000" font-family="sans-serif" font-size="14" lengthAdjust="spacing" textLength="92" x="215" y="303.4795">lanzar(): void</text></g><!--link Matriz to Lanzador--><g id="link_Matriz_Lanzador"><path codeLine="27" d="M254.7,88.162 C245.259,102.195 238.924,118.588 243,135 C245.487,145.015 246.7508,149.6325 251.0308,159.3995 " fill="none" id="Matriz-to-Lanzador" style="stroke:#181818;stroke-width:1.0;"/><polygon fill="#181818" points="253.439,164.895,253.4904,155.0463,251.4322,160.3154,246.163,158.2572,253.439,164.895" style="stroke:#181818;stroke-width:1.0;"/><text fill="#000000" font-family="sans-serif" font-size="13" lengthAdjust="spacing" textLength="55" x="244" y="131.0669">contiene</text></g><!--link Lanzador to Matriz--><g id="link_Lanzador_Matriz"><path codeLine="30" d="M304.256,164.928 C304.971,149.442 305.086,133.172 304,118 C303.304,108.273 302.9027,103.7794 301.5297,94.0294 " fill="none" id="Lanzador-to-Matriz" style="stroke:#181818;stroke-width:1.0;"/><polygon fill="#181818" points="300.693,88.088,297.9871,97.5578,301.3902,93.0391,305.9089,96.4423,300.693,88.088" style="stroke:#181818;stroke-width:1.0;"/><text fill="#000000" font-family="sans-serif" font-size="13" lengthAdjust="spacing" textLength="55" x="305" y="131.0669">contiene</text></g><!--link Transpuesta to Matriz--><g id="link_Transpuesta_Matriz"><path codeLine="28" d="M125.133,387.9785 C110.324,331.445 94.5665,235.822 131,165 C147.787,132.368 173.3212,110.007 203.5382,91.278 " fill="none" id="Transpuesta-to-Matriz" style="stroke:#181818;stroke-width:1.0;"/><polygon fill="#181818" points="208.638,88.117,198.8809,89.4586,204.3881,90.7511,203.0956,96.2583,208.638,88.117" style="stroke:#181818;stroke-width:1.0;"/><text fill="#000000" font-family="sans-serif" font-size="13" lengthAdjust="spacing" textLength="45" x="132" y="242.5669">hereda</text></g><!--link Imprimir to Matriz--><g id="link_Imprimir_Matriz"><path codeLine="29" d="M457.693,387.8614 C458.844,331.425 454.233,236.105 417,165 C401.241,134.905 379.2895,112.0748 354.8645,91.8838 " fill="none" id="Imprimir-to-Matriz" style="stroke:#181818;stroke-width:1.0;"/><polygon fill="#181818" points="350.24,88.061,354.6282,96.8783,354.0937,91.2467,359.7253,90.7123,350.24,88.061" style="stroke:#181818;stroke-width:1.0;"/><text fill="#000000" font-family="sans-serif" font-size="13" lengthAdjust="spacing" textLength="45" x="456" y="242.5669">hereda</text></g><!--link Lanzador to Transpuesta--><g id="link_Lanzador_Transpuesta"><path codeLine="31" d="M239.43,311.054 C218.952,336.684 200.1682,360.1934 181.7412,383.257 " fill="none" id="Lanzador-to-Transpuesta" style="stroke:#181818;stroke-width:1.0;"/><polygon fill="#181818" points="177.996,387.9446,186.7389,383.41,181.117,384.0383,180.4888,378.4164,177.996,387.9446" style="stroke:#181818;stroke-width:1.0;"/><text fill="#000000" font-family="sans-serif" font-size="13" lengthAdjust="spacing" textLength="55" x="214" y="354.0669">contiene</text></g><!--link Lanzador to Imprimir--><g id="link_Lanzador_Imprimir"><path codeLine="32" d="M349.442,311.183 C361.224,326.813 373.843,343.113 386,358 C393.976,367.767 398.7846,373.4852 407.3226,383.1802 " fill="none" id="Lanzador-to-Imprimir" style="stroke:#181818;stroke-width:1.0;"/><polygon fill="#181818" points="411.288,387.683,408.3417,378.2852,407.9835,383.9307,402.338,383.5724,411.288,387.683" style="stroke:#181818;stroke-width:1.0;"/><text fill="#000000" font-family="sans-serif" font-size="13" lengthAdjust="spacing" textLength="55" x="387" y="354.0669">contiene</text></g><!--SRC=[hP4nYmCX48LxVyMK2M7_WCNr1qcNBWGPT8uRM3Ne98GSzzzltLjq5xAG8es5x_c-DuxjCMSue2H-m8y2w81wyXGaPWrxpd8Q3mvoFW_o3epXm6BCPjstLRzAsJ7vc33aovMou1lZYr5QycQhfn4Q-DDV4djERwRo55kGjyYk0VSO7kZYIy0EB0PXXyvyyV1Qmw0ixstihpuqQTRnlubDX4B6bxdljKvH-j9aqN3QRzTzj9eQR1nO54ZDbrGyart3DoLogEfVFXDhu4AisGjv3bhpL5Wp_040]--></g></svg>